<?xml version="1.0" standalone="yes"?>
<svg xmlns="http://www.w3.org/2000/svg" data-v-2cb57da0="" version="1.0" width="192.30999755859375" height="108.40379333496094"
	 viewBox="73.84500122070312 70.798095703125 192.30999755859375 108.40379333496094" preserveAspectRatio="xMidYMid meet" color-interpolation-filters="sRGB"
	 style="margin: auto;zoom: 1;">
	<g data-v-2cb57da0="" fill="#333333" class="icon-text-wrapper icon-svg-group iconsvg"
	   transform="translate(73.84500122070312,70.79809951782227)">
		<g class="iconsvg-imagesvg" transform="translate(66.15499877929688,0)" fill="#333333">
			<g fill="#333333">
				<rect fill="#333333" fill-opacity="0" stroke-width="2px" x="0" y="0" width="60"
					  height="60.4917983203444" class="image-rect"></rect>
				<svg x="0" y="0" width="60" height="60.4917983203444" filtersec="colorsb3538331157"
					 class="image-svg-svg primary" style="overflow: visible;" fill="#333333">
					<svg xmlns="http://www.w3.org/2000/svg"
						 viewBox="0 -0.011200904846191406 98.78861999511719 99.59832000732422" fill="#333333">
						<title>资源 109</title>
						<path d="M98.78 79.79c0 4.31-.14 8.63 0 12.93s-1.41 5.73-5.78 6.17c-6.9.7-13.7-.14-20.53-.09-16.93.13-33.85.5-50.77.74a18.21 18.21 0 0 1-5.23-.38c-2.56-.72-3.37-2.4-1.37-4.6 1.62-1.77 3.36-3.43 5-5.13q24.74-25 49.43-50c2.21-2.25 4.36-2.12 6.28-.26 7.4 7.09 14.85 14.09 21.58 21.83 1.26 1.44 1.39 3.17 1.39 4.95z"
							  fill="#FA6663"></path>
						<path d="M0 42.73V6.81C.06 1.09 1.05.1 6.75.05c8-.07 16 0 24 0a11.75 11.75 0 0 1 9.35 3.84c5.82 6.14 11.92 12 18 17.84 2.68 2.54 2.66 4.41 0 7.07C40 46.62 22.14 64.64 4.18 82.6c-.75.75-1.34 2.12-2.65 1.66-1.71-.6-1.47-2.32-1.47-3.7C0 68 0 55.34 0 42.73z"
							  fill="#8A56C2"></path>
						<path d="M98.68 19v13.4c0 1.1 0 2.36-1.22 2.92-1.36.62-2.48-.07-3.42-1Q79.67 19.88 65.34 5.45c-1.09-1.11-2.42-2.37-1.45-4.16C64.71-.22 66.35 0 67.76 0h25.39c3.78 0 5.57 1.83 5.54 5.58-.03 4.42 0 8.93-.01 13.42z"
							  fill="#FBB355"></path>
					</svg>
				</svg>
			</g>
		</g>
		<g transform="translate(0,67.4917984008789)" fill="#333333">
			<g data-gra="path-name" fill-rule="" class="tp-name iconsvg-namesvg" transform="translate(0,0)"
			   fill="#333333">
				<g transform="scale(1)" fill="#333333">
					<g fill="#333333">
						<path d="M14.66-18.69L14.66 0 7.1 0 7.1-18.69 0.34-18.69 0.34-23.94 21.42-23.94 21.42-18.69 14.66-18.69ZM35.45-19.74Q35.99-19.74 36.6-19.61 37.21-19.49 37.51-19.32L37.51-19.32Q37.51-18.4 37.3-16.28 37.09-14.15 36.92-13.27L36.92-13.27Q36.5-13.31 35.36-13.31L35.36-13.31Q32.72-13.31 30.66-13.02L30.66-13.02 30.66 0 23.48 0 23.48-19.32 29.48-19.32 30.32-16.21 30.37-16.21Q31.58-17.81 32.97-18.77 34.36-19.74 35.45-19.74L35.45-19.74ZM55.61 0L49.64 0 48.97-2.65Q47.04 0.5 43.6 0.5L43.6 0.5Q40.78 0.5 39-1.07 37.21-2.65 37.21-5.5L37.21-5.5Q37.21-7.27 38.24-8.59 39.27-9.91 41.08-10.46L41.08-10.46Q43.43-11.13 48.34-11.21L48.34-11.21Q48.34-13.99 48.09-14.15L48.09-14.15Q47.88-14.32 46.75-14.32L46.75-14.32Q46.03-14.32 44.77-14.24L44.77-14.24Q42.76-14.15 39.31-13.78L39.31-13.78Q38.98-16.04 38.81-18.65L38.81-18.65Q41.03-19.11 43.47-19.43 45.91-19.74 47.84-19.74L47.84-19.74Q51.2-19.74 52.88-18.63 54.56-17.51 55.06-15.71 55.57-13.9 55.52-11.13L55.52-11.13 55.48-4.96 55.61 0ZM46.03-4.2Q47.12-4.2 48.34-4.62L48.34-4.62 48.34-7.73 48.01-7.73Q44.9-7.73 44.56-7.39L44.56-7.39Q44.35-7.18 44.25-6.76 44.14-6.34 44.14-5.96L44.14-5.96Q44.14-4.96 44.6-4.58 45.07-4.2 46.03-4.2L46.03-4.2ZM77.45-18.1Q77.83-17.64 78.02-15.79 78.2-13.94 78.2-10.16L78.2-10.16 78.2 0 71.02 0 71.02-10.08 71.02-11.8Q71.02-13.15 70.81-13.48L70.81-13.48Q70.48-13.9 69.26-13.9L69.26-13.9Q68.67-13.9 68.38-13.86L68.38-13.86Q67.2-13.82 65.94-13.31L65.94-13.31 65.94 0 58.76 0 58.76-19.32 64.6-19.32 65.39-16.09Q68.42-19.74 72.62-19.74L72.62-19.74Q74.13-19.74 75.45-19.32 76.78-18.9 77.45-18.1L77.45-18.1ZM97.15-6.55Q97.15-2.81 94.77-1.18 92.4 0.46 88.03 0.46L88.03 0.46Q84.97 0.46 80.98-0.42L80.98-0.42Q81.06-1.26 81.38-2.83 81.69-4.41 81.9-5.25L81.9-5.25Q83.41-5 85.26-4.85 87.11-4.7 88.41-4.7L88.41-4.7Q89.54-4.7 89.8-4.83L89.8-4.83Q89.84-4.87 89.9-5.06 89.96-5.25 89.96-5.46L89.96-5.46Q89.96-6.3 88.91-6.59L88.91-6.59Q88.58-6.68 86.35-7.31 84.13-7.94 82.72-9.6 81.31-11.26 81.31-13.73L81.31-13.73Q81.31-15.04 81.9-16.63 82.49-18.23 83.16-18.65L83.16-18.65Q83.66-18.98 85.6-19.34 87.53-19.7 89.17-19.7L89.17-19.7Q92.65-19.7 96.18-19.19L96.18-19.19Q96.18-18.44 95.97-16.65 95.76-14.87 95.59-14.41L95.59-14.41Q92.02-14.87 89.84-14.87L89.84-14.87Q88.7-14.87 88.37-14.74L88.37-14.74Q88.28-14.7 88.2-14.51 88.12-14.32 88.12-14.03L88.12-14.03Q88.12-13.44 88.49-13.19L88.49-13.19Q88.87-12.89 90.47-12.47L90.47-12.47Q92.36-11.93 93.72-11.34 95.09-10.75 96.12-9.58 97.15-8.4 97.15-6.55L97.15-6.55ZM115.16-5.04L115.79-0.59Q112.39 0.55 108.19 0.55L108.19 0.55Q103.49 0.55 101.16-1.83 98.83-4.2 98.83-9.24L98.83-9.24Q98.83-11.72 99.5-14.13 100.17-16.55 100.93-17.39L100.93-17.39Q101.81-18.35 104.39-19.03 106.97-19.7 109.75-19.7L109.75-19.7Q112.64-19.7 115.58-19.19L115.58-19.19Q115.5-18.14 115.31-16.74 115.12-15.33 114.91-14.24L114.91-14.24Q112.31-14.41 110-14.41L110-14.41Q107.73-14.41 107.1-14.15L107.1-14.15Q106.76-14.03 106.49-12.43 106.22-10.84 106.22-9.45L106.22-9.45Q106.22-7.6 106.74-6.62 107.27-5.63 108.4-5.25 109.54-4.87 111.47-4.87L111.47-4.87Q112.31-4.87 115.16-5.04L115.16-5.04ZM118.31 0L118.31-25.2 125.5-25.49 125.5 0 118.31 0ZM141.2-19.32L148.39-19.32 148.39 0 142.55 0 141.75-3.23Q138.73 0.42 134.53 0.42L134.53 0.42Q133.01 0.42 131.69 0 130.37-0.42 129.7-1.22L129.7-1.22Q129.32-1.68 129.13-3.53 128.94-5.38 128.94-9.16L128.94-9.16 128.94-19.32 136.12-19.32 136.12-9.24Q136.12-8.4 136.16-7.27 136.21-6.13 136.42-5.84L136.42-5.84Q136.71-5.42 138.1-5.42L138.1-5.42 138.77-5.46Q139.94-5.5 141.2-6.01L141.2-6.01 141.2-19.32ZM163.84-25.2L171.07-25.49 171.07 0 165.14 0 164.56-3.23Q163.72-1.6 162.08-0.63 160.44 0.34 158.38 0.34L158.38 0.34Q155.11 0.34 153.15-2.02 151.2-4.37 151.2-9.07L151.2-9.07Q151.2-12.64 152.04-14.95 152.88-17.26 154.01-18.27L154.01-18.27Q154.73-18.9 156.93-19.32 159.14-19.74 160.86-19.74L160.86-19.74Q162.37-19.74 163.97-19.45L163.97-19.45Q163.84-21.46 163.84-21.67L163.84-21.67 163.84-25.2ZM161.53-5.29Q162.67-5.29 163.88-5.67L163.88-5.67 163.88-14.78Q162.67-14.95 161.2-14.95L161.2-14.95Q159.94-14.95 159.6-14.74L159.6-14.74Q159.14-14.41 158.87-12.83 158.59-11.26 158.59-9.53L158.59-9.53Q158.59-6.97 159.37-6.13 160.15-5.29 161.53-5.29L161.53-5.29ZM186.23-5.04Q187.28-5.04 190.13-5.25L190.13-5.25Q190.51-5.25 191.52-5.33L191.52-5.33 192.15-1.01Q188.92 0.5 183.75 0.5L183.75 0.5Q178.92 0.5 176.34-1.93 173.75-4.37 173.75-9.28L173.75-9.28Q173.75-11.8 174.41-14.15 175.06-16.51 175.9-17.43L175.9-17.43Q176.78-18.35 179.17-19.03 181.57-19.7 183.92-19.7L183.92-19.7Q187.7-19.7 189.59-18.35 191.48-17.01 192.07-14.64 192.65-12.26 192.65-8.27L192.65-8.27Q189.8-8.11 187.07-8.11L187.07-8.11 181.1-8.11Q181.1-6.76 181.67-6.09 182.24-5.42 183.29-5.23 184.34-5.04 186.23-5.04L186.23-5.04ZM181.52-14.7Q181.27-14.57 181.15-13.61 181.02-12.64 180.98-11.42L180.98-11.42 183.16-11.42Q185.14-11.42 186.02-11.47L186.02-11.47Q186.02-13.48 185.45-14.32 184.88-15.16 183.5-15.16L183.5-15.16Q182.36-15.16 181.52-14.7L181.52-14.7Z"
							  transform="translate(-0.3400000035762787, 25.489999771118164)" fill="#333333"></path>
					</g>
				</g>
			</g>
			<g data-gra="path-slogan" fill-rule="" class="tp-slogan iconsvg-slogansvg" fill="#333333"
			   transform="translate(88.46499919891357,33.03999900817871)">
				<g transform="scale(1, 1)" fill="#333333">
					<g transform="scale(1)" fill="#333333">
						<path d="M1.08 0L1.08-7.87L2.26-7.87L3.78-3.65L4.36-2.04L4.40-2.04L4.96-3.65L6.47-7.87L7.64-7.87L7.64 0L6.70 0L6.70-4.33Q6.70-4.86 6.74-5.50Q6.78-6.13 6.83-6.66L6.83-6.66L6.78-6.66L6.14-4.91L4.63-0.79L4.07-0.79L2.54-4.91L1.92-6.66L1.87-6.66Q1.91-6.13 1.96-5.50Q2.00-4.86 2.00-4.33L2.00-4.33L2.00 0L1.08 0ZM11.80 0L11.80-7.87L16.34-7.87L16.34-7.03L12.80-7.03L12.80-4.56L15.79-4.56L15.79-3.71L12.80-3.71L12.80-0.85L16.46-0.85L16.46 0L11.80 0Z"
							  transform="translate(-1.08, 7.872)" fill="#333333"></path>
					</g>
				</g>
			</g>
		</g>
	</g>
</svg>
